<svg height="432pt" viewBox="0 -12 432 431" width="432pt" xmlns="http://www.w3.org/2000/svg"><path d="m404 56.21875c-1.71875 0-3.246094-1.101562-3.792969-2.734375l-3.320312-9.953125c-1.285157-3.847656-4.351563-6.917969-8.207031-8.207031l-9.953126-3.320313c-1.621093-.535156-2.726562-2.0625-2.726562-3.785156 0-1.71875 1.105469-3.246094 2.734375-3.789062l9.953125-3.320313c3.847656-1.289063 6.921875-4.351563 8.207031-8.210937l3.320313-9.949219c1.089844-3.265625 6.496094-3.265625 7.585937 0l3.320313 9.949219c1.285156 3.847656 4.351562 6.921874 8.207031 8.210937l9.953125 3.320313c1.613281.542968 2.71875 2.070312 2.71875 3.789062 0 1.722656-1.105469 3.25-2.734375 3.792969l-9.953125 3.320312c-3.847656 1.289063-6.921875 4.351563-8.207031 8.207031l-3.320313 9.953126c-.539062 1.625-2.066406 2.726562-3.785156 2.726562zm-11.496094-28c5.191406 2.128906 9.367188 6.304688 11.496094 11.496094 2.128906-5.191406 6.304688-9.367188 11.496094-11.496094-5.191406-2.125-9.367188-6.304688-11.496094-11.496094-2.128906 5.191406-6.304688 9.371094-11.496094 11.496094zm0 0" fill="#263238"/><path d="m384 368.21875h-284c-2.207031 0-4-1.789062-4-4v-256c0-2.207031 1.792969-4 4-4h284c13.230469 0 24 10.769531 24 24v216c0 13.234375-10.769531 24-24 24zm-280-8h280c8.824219 0 16-7.175781 16-16v-216c0-8.824219-7.175781-16-16-16h-280zm0 0" fill="#263238"/><path d="m168 188.21875h-68v176h284c11.046875 0 20-8.949219 20-20v-156h-68" fill="#ffd740"/><path d="m384 368.21875h-284c-2.207031 0-4-1.789062-4-4v-176c0-2.207031 1.792969-4 4-4h68c2.207031 0 4 1.792969 4 4 0 2.210938-1.792969 4-4 4h-64v168h280c8.824219 0 16-7.175781 16-16v-152h-64c-2.207031 0-4-1.789062-4-4 0-2.207031 1.792969-4 4-4h68c2.207031 0 4 1.792969 4 4v156c0 13.234375-10.769531 24-24 24zm0 0" fill="#263238"/><path d="m320 96.21875c-1.472656 0-2.878906-.808594-3.585938-2.207031l-14.46875-28.945313c-2.730468-5.453125-8.210937-8.839844-14.3125-8.839844h-71.28125c-6.09375 0-11.582031 3.386719-14.3125 8.839844l-14.472656 28.945313c-.992187 1.976562-3.390625 2.777343-5.367187 1.792969-1.976563-.992188-2.773438-3.394532-1.792969-5.367188l14.472656-28.945312c4.089844-8.183594 12.320313-13.265626 21.464844-13.265626h71.28125c9.152344 0 17.375 5.082032 21.464844 13.265626l14.46875 28.945312c.992187 1.972656.183594 4.375-1.789063 5.367188-.554687.28125-1.160156.414062-1.769531.414062zm0 0" fill="#263238"/><path d="m332 236.21875c0 44.183594-35.816406 80-80 80s-80-35.816406-80-80c0-44.179688 35.816406-80 80-80s80 35.820312 80 80zm0 0" fill="#fff"/><path d="m252 320.21875c-46.320312 0-84-37.679688-84-84s37.679688-84 84-84 84 37.679688 84 84-37.679688 84-84 84zm0-160c-41.902344 0-76 34.097656-76 76 0 41.90625 34.097656 76 76 76s76-34.09375 76-76c0-41.902344-34.097656-76-76-76zm0 0" fill="#263238"/><path d="m308 236.21875c0 30.929688-25.070312 56-56 56s-56-25.070312-56-56c0-30.925781 25.070312-56 56-56s56 25.074219 56 56zm0 0" fill="#40c4ff"/><g fill="#263238"><path d="m252 296.21875c-33.089844 0-60-26.910156-60-60 0-33.085938 26.910156-60 60-60s60 26.914062 60 60c0 33.089844-26.910156 60-60 60zm0-112c-28.671875 0-52 23.328125-52 52s23.328125 52 52 52 52-23.328125 52-52-23.328125-52-52-52zm0 0"/><path d="m284 240.21875c-2.207031 0-4-1.789062-4-4 0-15.4375-12.558594-28-28-28-2.207031 0-4-1.789062-4-4 0-2.207031 1.792969-4 4-4 19.847656 0 36 16.152344 36 36 0 2.210938-1.792969 4-4 4zm0 0"/><path d="m364 164.21875h-20c-6.617188 0-12-5.382812-12-12v-8c0-6.613281 5.382812-12 12-12h20c6.617188 0 12 5.386719 12 12v8c0 6.617188-5.382812 12-12 12zm-20-24c-2.207031 0-4 1.792969-4 4v8c0 2.210938 1.792969 4 4 4h20c2.207031 0 4-1.789062 4-4v-8c0-2.207031-1.792969-4-4-4zm0 0"/><path d="m276 80.21875h-48c-2.207031 0-4-1.789062-4-4 0-2.207031 1.792969-4 4-4h48c2.207031 0 4 1.792969 4 4 0 2.210938-1.792969 4-4 4zm0 0"/><path d="m380 328.21875c-2.207031 0-4-1.789062-4-4v-112c0-2.207031 1.792969-4 4-4s4 1.792969 4 4v112c0 2.210938-1.792969 4-4 4zm0 0"/><path d="m100 368.21875h-76c-13.230469 0-24-10.765625-24-24v-240c0-13.230469 10.769531-24 24-24h56c13.230469 0 24 10.769531 24 24v260c0 2.210938-1.792969 4-4 4zm-76-280c-8.824219 0-16 7.175781-16 16v240c0 8.824219 7.175781 16 16 16h72v-256c0-8.824219-7.175781-16-16-16zm0 0"/><path d="m68 72.21875h-32c-2.207031 0-4-1.789062-4-4 0-2.207031 1.792969-4 4-4h32c2.207031 0 4 1.792969 4 4 0 2.210938-1.792969 4-4 4zm0 0"/></g><path d="m24 364.21875h76v-176h-96v156c0 11.050781 8.953125 20 20 20zm0 0" fill="#ffd740"/><path d="m100 368.21875h-76c-13.230469 0-24-10.765625-24-24v-156c0-2.207031 1.792969-4 4-4h96c2.207031 0 4 1.792969 4 4v176c0 2.210938-1.792969 4-4 4zm-92-176v152c0 8.824219 7.175781 16 16 16h72v-168zm0 0" fill="#263238"/><path d="m52 24.21875h-16c-2.207031 0-4-1.789062-4-4 0-2.207031 1.792969-4 4-4h16c2.207031 0 4 1.792969 4 4 0 2.210938-1.792969 4-4 4zm0 0" fill="#263238"/><path d="m156 24.21875h-88c-2.207031 0-4-1.789062-4-4 0-2.207031 1.792969-4 4-4h88c2.207031 0 4 1.792969 4 4 0 2.210938-1.792969 4-4 4zm0 0" fill="#263238"/><path d="m372 408.21875h-16c-2.207031 0-4-1.789062-4-4 0-2.207031 1.792969-4 4-4h16c2.207031 0 4 1.792969 4 4 0 2.210938-1.792969 4-4 4zm0 0" fill="#263238"/><path d="m340 408.21875h-168c-2.207031 0-4-1.789062-4-4 0-2.207031 1.792969-4 4-4h168c2.207031 0 4 1.792969 4 4 0 2.210938-1.792969 4-4 4zm0 0" fill="#263238"/></svg>