<svg height="480pt" viewBox="-40 0 480 480" width="480pt" xmlns="http://www.w3.org/2000/svg"><path d="m256.023438 8c48.601562 0 88 39.398438 88 88 0 26.507812 21.492187 48 48 48 0 17.671875-14.328126 32-32 32h-24c0 15.371094 6.109374 30.109375 16.976562 40.976562l15.023438 15.023438c-13.253907 13.257812-34.746094 13.257812-48 0 0 26.507812-21.488282 48-48 48h-144c-26.507813 0-48-21.492188-48-48-13.253907 13.257812-34.746094 13.257812-48 0l15.03125-15.023438c10.867187-10.871093 16.96875-25.609374 16.96875-40.976562h-24c-17.671876 0-32-14.328125-32-32 26.511718 0 48-21.492188 48-48 0-48.601562 39.398437-88 88-88zm0 0" fill="#6c3b15"/><path d="m119.726562 312h160.601563c30.765625 0 55.703125 24.941406 55.703125 55.703125v104.296875h-272v-104.320312c.015625-30.75 24.945312-55.675782 55.695312-55.679688zm0 0" fill="#595a6e"/><path d="m232.023438 266.726562v45.25l-32 32-32-32v-45.25zm0 0" fill="#e8d8bf"/><path d="m304.023438 96v88c0 57.4375-46.5625 104-104 104s-104-46.5625-104-104v-88zm0 0" fill="#e8d8bf"/><path d="m96.023438 95.976562h208v32h-208zm0 0" fill="#d8a29e"/><path d="m208.023438 415.976562 83.015624-83.007812 24.695313 23.304688-83.710937 83.703124zm0 0" fill="#ecac7b"/><path d="m210.023438 409.976562-97.480469-97.480468c-14.117188 1.808594-27.003907 8.96875-36 20l101.480469 101.480468zm0 0" fill="#1d3f54"/><path d="m192.023438 72c0 35.347656 28.65625 64 64 64 35.347656 0 64-28.652344 64-64zm0 0" fill="#6c3b15"/><path d="m104.023438 472 1.425781-8.542969c3.785156-22.773437 23.488281-39.464843 46.574219-39.457031l31.914062-31.886719c8.90625-8.914062 23.355469-8.914062 32.261719 0l39.871093 39.886719c8.816407 8.808594 8.816407 23.09375 0 31.902344l-8.046874 8.097656zm0 0" fill="#f7ce49"/><path d="m288.023438 335.976562 56-56 24 24-24 56h-32zm0 0" fill="#f7ce49"/><path d="m64.023438 423.976562h48v48h-48zm0 0" fill="#e8d8bf"/><path d="m392 136c-22.082031-.027344-39.972656-17.917969-40-40-.058594-52.996094-43.003906-95.9414062-96-96h-112c-52.996094.0585938-95.941406 43.003906-96 96-.027344 22.082031-17.917969 39.972656-40 40-4.417969 0-8 3.582031-8 8 .0273438 22.082031 17.917969 39.972656 40 40h15.367188c-1.660157 10.355469-6.558594 19.914062-13.992188 27.3125l-15.039062 15.007812c-3.121094 3.125-3.121094 8.1875 0 11.3125 12.484374 12.46875 31.433593 15.808594 47.433593 8.359376 6.410157 24.710937 28.699219 41.976562 54.230469 42.007812h30.671875c.433594.175781.886719.320312 1.328125.488281v15.511719h-40.296875c-35.164063.039062-63.664063 28.539062-63.703125 63.703125v104.296875c0 4.417969 3.582031 8 8 8h272c4.417969 0 8-3.582031 8-8v-104c3.199219 0 6.089844-1.90625 7.351562-4.847656l24-56c1.285157-3.003906.613282-6.488282-1.695312-8.800782l-24-24c-3.125-3.121093-8.1875-3.121093-11.3125 0l-34.3125 34.3125c-7.542969-3.050781-15.597656-4.632812-23.734375-4.664062h-40.296875v-15.535156c.441406-.167969.894531-.3125 1.328125-.488282h30.671875c25.519531-.035156 47.800781-17.285156 54.222656-41.984374 16.003906 7.441406 34.953125 4.089843 47.433594-8.390626 3.121094-3.125 3.121094-8.191406 0-11.3125l-15.03125-15.03125c-7.425781-7.382812-12.320312-16.921874-13.992188-27.257812h15.367188c22.082031-.027344 39.972656-17.917969 40-40 0-4.417969-3.582031-8-8-8zm-282.257812 185.039062 66.945312 66.960938-16.6875 16.6875-72.28125-72.28125c6.210938-5.664062 13.808594-9.585938 22.023438-11.367188zm-5.742188 142.960938h-32v-32h32zm8-48h-40v-48.320312c-.007812-7.910157 1.964844-15.699219 5.734375-22.65625l70.953125 70.976562-.101562.105469c-10.296876.628906-20.207032 4.152343-28.585938 10.167969v-2.273438c0-4.417969-3.582031-8-8-8zm138.398438 42.296875-5.710938 5.703125h-124.6875v-15.351562c7.292969-10.460938 19.246094-16.6875 32-16.671876 2.121094 0 4.15625-.84375 5.65625-2.34375l31.878906-31.863281c5.796875-5.769531 15.164063-5.769531 20.960938 0l2.207031 2.207031-10.367187 10.34375c-3.121094 3.125-3.121094 8.1875 0 11.3125l24 24c3.125 3.121094 8.1875 3.121094 11.3125 0l10.34375-10.34375 2.398437 2.398438c5.667969 5.691406 5.667969 14.894531 0 20.585938zm-31.085938-42.296875 68.6875-68.6875 12.6875 12.6875-68.6875 68.6875zm108.6875 48h-61.953125c7.421875-12.03125 5.625-27.578125-4.34375-37.601562l-2.398437-2.398438 56-56h12.6875zm16-172.6875 14.511719 14.519531-19.785157 46.167969h-23.414062l-16-16zm-63.703125 28.6875c3.734375-.003906 7.460937.433594 11.09375 1.296875l-9.054687 9.023437-58.34375 58.34375-2.207032-2.207031c-8.230468-8.175781-20.363281-11.023437-31.371094-7.359375l-59.101562-59.097656h33.375l29.648438 29.601562c3.125 3.121094 8.1875 3.121094 11.3125 0l29.664062-29.601562zm-104.296875-11.335938v-15.34375c15.804688 3.542969 32.195312 3.542969 48 0v15.34375l-24 24zm24-28.6875c-52.996094-.058593-95.941406-43.003906-96-96v-47.976562h119.136719c20.585937 10.667969 45.074219 10.667969 65.664062 0h7.199219v48c-.058594 52.996094-43.003906 95.941406-96 96zm-96-160v-15.976562h87.601562c2.890626 5.800781 6.550782 11.183594 10.886719 16zm256 48h-24c-4.417969 0-8 3.582032-8 8-.046875 17.496094 6.90625 34.285157 19.3125 46.625l8.496094 8.496094c-10.054688 4.925782-22.125 3.003906-30.152344-4.800781-2.292969-2.292969-5.746094-2.976563-8.738281-1.726563-2.996094 1.25-4.9375 4.1875-4.917969 7.429688-.027344 22.082031-17.917969 39.972656-40 40h-2.945312c27.089843-21.167969 42.925781-53.625 42.945312-88v-66.863281c10.355469-12.773438 16.003906-28.71875 16-45.160157 0-4.417968-3.582031-8-8-8h-64v16h55.433594c-4.175782 29.089844-30.128906 50.003907-59.445313 47.898438-29.3125-2.101562-52.011719-26.511719-51.988281-55.898438h-16c.015625 5.386719.640625 10.753907 1.855469 16h-89.855469c-4.417969 0-8 3.582032-8 8v88.023438c.019531 34.375 15.855469 66.832031 42.945312 88h-2.945312c-22.082031-.027344-39.972656-17.917969-40-40 .011719-3.242188-1.933594-6.171875-4.929688-7.417969-2.992187-1.246093-6.445312-.558593-8.734374 1.738281-8.027344 7.808594-20.097657 9.726563-30.152344 4.800782l8.496094-8.496094c12.410156-12.339844 19.367187-29.128906 19.320312-46.625 0-4.417969-3.582031-8-8-8h-24c-10.472656-.023438-19.722656-6.816406-22.878906-16.800781 27.003906-4.492188 46.816406-27.824219 46.878906-55.199219.054688-44.160156 35.839844-79.945312 80-80h112c44.160156.054688 79.945312 35.839844 80 80 .03125 27.398438 19.855469 50.761719 46.878906 55.257812-3.175781 9.960938-12.421875 16.726563-22.878906 16.742188zm0 0"/></svg>