<?xml version="1.0" encoding="iso-8859-1"?>
<!-- Generator: Adobe Illustrator 19.0.0, SVG Export Plug-In . SVG Version: 6.00 Build 0)  -->
<svg version="1.1" id="Capa_1" xmlns="http://www.w3.org/2000/svg" xmlns:xlink="http://www.w3.org/1999/xlink" x="0px" y="0px"
	 viewBox="0 0 480.002 480.002" style="enable-background:new 0 0 480.002 480.002;" xml:space="preserve">
<path style="fill:#5A6570;" d="M380.003,480.002c-4.418,0-8-3.582-8-8v-120c0-4.418,3.582-8,8-8s8,3.582,8,8v120
	C388.003,476.42,384.422,480.002,380.003,480.002z"/>
<path style="fill:#7FCCCB;" d="M308.001,304l32.001-32.001l119.999,119.999L428,423.999L308.001,304z"/>
<path style="fill:#31B1AE;" d="M308.003,304.002l120,120l12-11.736l-120-120L308.003,304.002z"/>
<path style="fill:#FFF89B;" d="M60.003,104.002v-96l48,80L60.003,104.002z"/>
<path style="fill:#7E8E9C;" d="M342.203,241.114c-2.601-4.74-5.978-9.01-9.992-12.632c-19.583-17.822-49.906-16.394-67.728,3.189
	c-16.647,18.292-16.647,46.246,0,64.539c3.622,4.014,7.892,7.391,12.632,9.992c23.296,12.651,52.437,4.021,65.088-19.276
	C349.961,272.64,349.961,255.399,342.203,241.114z"/>
<path style="fill:#2276BB;" d="M440.923,1.698c-1.937-1.521-4.468-2.058-6.856-1.456l-96,24c-3.563,0.889-6.063,4.088-6.064,7.76
	V99.33c-5.047-2.201-10.494-3.334-16-3.328c-17.672,0-32,10.744-32,24s14.328,24,32,24s32-10.744,32-24V38.25l80-20v81.08
	c-5.047-2.201-10.494-3.334-16-3.328c-17.672,0-32,10.744-32,24s14.328,24,32,24s32-10.744,32-24v-112
	C444.002,5.538,442.866,3.213,440.923,1.698L440.923,1.698z"/>
<path style="fill:#4FB86A;" d="M467.587,165.474c-1.399-4.186-5.924-6.449-10.112-5.056l-24,8c-3.266,1.088-5.469,4.142-5.472,7.584
	v69.104c-2.607-0.717-5.296-1.089-8-1.104c-13.256,0-24,8.056-24,18s10.744,18,24,18c8.471,0.378,16.572-3.492,21.6-10.32
	c0.104-0.104,0.16-0.24,0.256-0.344s0.184-0.256,0.256-0.392c1.186-1.378,1.854-3.126,1.888-4.944V181.77l18.528-6.184
	C466.718,174.187,468.98,169.662,467.587,165.474z"/>
<path style="fill:#5A6570;" d="M339.731,237.066c-2.801,26.361-26.442,45.461-52.803,42.66
	c-14.047-1.493-26.724-9.097-34.653-20.788c-2.801,26.361,16.299,50.002,42.66,52.803c26.361,2.801,50.002-16.299,52.803-42.66
	C348.937,257.798,346.1,246.456,339.731,237.066L339.731,237.066z"/>
<path style="fill:#CFAD9A;" d="M252.003,480.002V178.066c0-31.738-12.574-62.183-34.968-84.672
	C170.272,46.432,94.292,46.271,47.33,93.035c-0.12,0.119-0.239,0.239-0.359,0.359c-22.394,22.489-34.968,52.934-34.968,84.672
	v301.936H252.003z"/>
<path style="fill:#9A615B;" d="M94.971,93.394c16.645-16.75,37.885-28.187,61.032-32.864C91.101,47.248,27.72,89.096,14.439,153.998
	c-1.621,7.92-2.437,15.983-2.435,24.067v301.936h48V178.066C60.004,146.328,72.577,115.883,94.971,93.394z"/>
<path style="fill:#FFF89B;" d="M116.003,88.002l48,48v-128L116.003,88.002z"/>
<path style="fill:#FFDB43;" d="M12.003,176.002h240v16h-240V176.002z"/>
<path style="fill:#B557A1;" d="M52.003,176.002v16v48h48h16l16-16v-48H52.003z"/>
<path style="fill:#9B1E5A;" d="M52.003,240.002h48l-48-48V240.002z"/>
<path style="fill:#B557A1;" d="M212.003,176.002v16v48h-48h-16l-16-16v-48H212.003z"/>
<path style="fill:#9B1E5A;" d="M172.003,232.002l-32-32v-24h-8v16v32l16,16h16h16h32v-8H172.003z"/>
<g>
	<path style="fill:#67342C;" d="M100.003,368.002c-4.418-0.001-7.999-3.583-7.998-8.002c0-2.121,0.843-4.154,2.342-5.654l24-24
		c3.178-3.069,8.243-2.982,11.312,0.196c2.994,3.1,2.994,8.015,0,11.116l-24,24C104.159,367.158,102.125,368.001,100.003,368.002z"
		/>
	<path style="fill:#67342C;" d="M140.003,368.002c-4.418-0.001-7.999-3.583-7.998-8.002c0-2.121,0.843-4.154,2.342-5.654l24-24
		c3.178-3.069,8.243-2.982,11.312,0.196c2.994,3.1,2.994,8.015,0,11.116l-24,24C144.159,367.158,142.125,368.001,140.003,368.002
		L140.003,368.002z"/>
</g>
<g>
	<path style="fill:#FFFFFF;" d="M196.003,208.002c-2.122,0-4.156-0.844-5.656-2.344l-8-8c-3.069-3.178-2.981-8.243,0.197-11.312
		c3.1-2.994,8.015-2.994,11.115,0l8,8c3.124,3.125,3.123,8.19-0.002,11.314C200.158,207.159,198.124,208.001,196.003,208.002
		L196.003,208.002z"/>
	<path style="fill:#FFFFFF;" d="M116.003,208.002c-2.122,0-4.156-0.844-5.656-2.344l-8-8c-3.069-3.178-2.981-8.243,0.197-11.312
		c3.1-2.994,8.015-2.994,11.115,0l8,8c3.124,3.125,3.123,8.19-0.002,11.314C120.158,207.159,118.124,208.001,116.003,208.002
		L116.003,208.002z"/>
</g>
<path style="fill:#FFDB43;" d="M239.315,425.378c-7.404,7.413-16.965,12.292-27.312,13.936v-15.312c0-4.418-3.582-8-8-8h-56
	c-4.418,0-8,3.582-8,8v16h-24v-16c0-4.418-3.582-8-8-8h-56c-4.418,0-8,3.582-8,8v14.784c-5.147-1.357-9.853-4.028-13.656-7.752
	L12.003,412.69v22.624l7.032,7.032c6.808,6.753,15.522,11.259,24.968,12.912v16.744c0,4.418,3.582,8,8,8h56c4.418,0,8-3.582,8-8v-16
	h24v16c0,4.418,3.582,8,8,8h56c4.418,0,8-3.582,8-8v-16.536c14.622-1.73,28.231-8.346,38.624-18.776l1.376-1.376V412.69
	L239.315,425.378z M100.003,464.002h-40v-32h40V464.002z M196.003,464.002h-40v-32h40V464.002z"/>
<g>
</g>
<g>
</g>
<g>
</g>
<g>
</g>
<g>
</g>
<g>
</g>
<g>
</g>
<g>
</g>
<g>
</g>
<g>
</g>
<g>
</g>
<g>
</g>
<g>
</g>
<g>
</g>
<g>
</g>
</svg>
